<svg version="1.1" id="Layer_1" xmlns="http://www.w3.org/2000/svg" xmlns:xlink="http://www.w3.org/1999/xlink" x="0px" y="0px"
	 width="100%" viewBox="0 0 1024 544" enable-background="new 0 0 1024 544" xml:space="preserve">
<path fill="#000000" opacity="1.000000" stroke="none" 
	d="
M477.689667,210.721146 
	C475.165466,208.053574 475.260803,210.219543 475.237732,211.744827 
	C475.174713,215.910156 474.956757,220.096878 475.276215,224.238403 
	C475.703339,229.775604 473.884918,234.198715 470.248535,238.315079 
	C464.276398,245.075500 457.579956,250.591370 448.668976,252.910828 
	C447.734009,253.154205 446.742157,253.178940 445.937012,253.284164 
	C444.153809,251.813644 444.734009,250.027985 444.732483,248.455780 
	C444.703094,217.958496 444.834961,187.460251 444.607025,156.964661 
	C444.568237,151.772995 446.255157,150.243896 451.195007,150.589447 
	C456.501984,150.960678 461.868286,150.905899 467.183258,150.597824 
	C470.978546,150.377823 473.345520,151.628723 475.292084,154.923264 
	C485.205566,171.702026 495.293671,188.377670 505.330414,205.083542 
	C509.692719,212.344467 514.078430,219.591339 518.918335,227.615143 
	C524.040588,219.167694 528.867615,211.286530 533.616577,203.358612 
	C543.289612,187.210312 552.973145,171.067825 562.522522,154.846481 
	C564.340637,151.757996 566.553223,150.568909 570.170410,150.594406 
	C591.667480,150.746048 613.193665,149.986008 634.657349,150.847244 
	C661.652161,151.930420 683.663086,163.000061 695.508057,188.392334 
	C708.853516,217.001297 702.744690,249.482468 679.731750,268.555542 
	C666.325623,279.666534 650.563721,285.128326 633.149292,285.264801 
	C611.319214,285.435883 589.486816,285.287506 567.655396,285.320465 
	C564.608704,285.325073 561.957275,285.350342 562.102661,281.031799 
	C562.730652,262.390961 562.261292,243.747345 562.104492,225.103516 
	C561.991638,211.679794 577.327698,189.454956 589.891113,184.502441 
	C590.611816,184.218338 591.441284,184.210327 592.112122,184.092773 
	C593.846924,186.036224 593.254517,188.125839 593.258362,190.038345 
	C593.300293,210.869720 593.418152,231.702850 593.174744,252.531509 
	C593.117432,257.437073 594.771423,258.961578 599.490662,258.717224 
	C611.782715,258.080872 624.159546,259.764435 636.398438,257.695465 
	C659.383179,253.809967 670.385681,238.024277 670.333923,217.317917 
	C670.277832,194.909561 653.560303,178.544083 632.385986,178.108322 
	C621.558228,177.885498 610.718506,178.242096 599.890869,178.016174 
	C587.596741,177.759674 578.436157,183.420746 571.389893,192.838654 
	C561.792847,205.665878 554.340576,219.872910 545.971680,233.488754 
	C540.041504,243.136780 534.232300,252.864212 528.620789,262.699768 
	C526.991699,265.555206 525.000305,266.060760 521.931885,266.593628 
	C513.045044,268.136749 508.845520,263.490417 504.911255,256.519348 
	C496.236694,241.149002 486.916687,226.142960 477.689667,210.721146 
z"/>
<path fill="#000000" opacity="1.000000" stroke="none" 
	d="
M421.248901,180.206818 
	C404.606201,187.815033 396.281219,205.792923 398.445557,224.432358 
	C400.320007,240.575043 412.666656,254.035065 429.153809,258.089874 
	C444.631653,261.896484 458.207214,258.267517 469.471191,247.005157 
	C472.851807,243.625000 475.151978,243.665100 478.325134,247.119736 
	C482.144348,251.277695 486.318420,255.135971 490.566467,258.864655 
	C493.471161,261.414154 493.602875,263.414856 490.875183,266.247498 
	C477.313080,280.331543 460.627075,286.873383 441.295502,287.385681 
	C417.171509,288.024994 396.686066,279.771942 381.345947,261.105286 
	C352.259033,225.710876 365.912231,167.622818 413.118103,152.802795 
	C419.939697,150.661179 426.853973,148.863998 434.089691,148.696274 
	C436.986450,148.629135 438.374603,149.670990 438.324249,152.735855 
	C438.214905,159.394226 438.192566,166.057602 438.328613,172.714966 
	C438.398193,176.118301 436.420074,177.050766 433.653687,177.190857 
	C429.446625,177.403885 425.434479,178.337769 421.248901,180.206818 
z"/>
<path fill="#000000" opacity="1.000000" stroke="none" 
	d="
M388.880066,158.900024 
	C383.662811,162.606384 378.758392,166.446121 375.973602,171.724899 
	C372.862885,177.621582 368.414886,178.429459 362.715302,177.870514 
	C355.367310,177.149887 355.354370,177.250671 355.348785,184.756577 
	C355.344208,190.917099 355.504272,197.083099 355.289215,203.236099 
	C355.160675,206.914093 355.400940,209.922852 360.560364,209.773514 
	C359.559387,218.573639 361.479706,226.920700 361.467072,235.774658 
	C355.327209,235.559937 355.185303,239.391296 355.271851,243.975433 
	C355.494995,255.792709 355.137421,267.622253 355.437531,279.436096 
	C355.557953,284.176300 353.826447,285.508575 349.369965,285.322144 
	C342.555328,285.037048 335.717529,285.134827 328.894562,285.289429 
	C325.356628,285.369568 323.763031,284.197906 323.768036,280.433685 
	C323.823639,238.642151 323.788361,196.850479 323.738861,155.058899 
	C323.735596,152.298065 324.476532,150.648010 327.645355,150.658508 
	C351.118500,150.736206 374.591827,150.739914 398.065094,150.787033 
	C398.362366,150.787628 398.659149,151.052063 399.890991,151.637955 
	C396.047516,154.158997 392.603424,156.418060 388.880066,158.900024 
z"/>
<path fill="#000000" opacity="1.000000" stroke="none" 
	d="
M638.017578,343.090179 
	C634.782654,343.654968 632.972717,342.240906 631.134644,340.281097 
	C627.761719,336.684692 625.188354,332.342255 620.271057,328.422943 
	C620.271057,332.633606 620.192627,335.877411 620.294067,339.115540 
	C620.387634,342.101318 619.086487,343.305939 616.105713,343.245331 
	C613.169434,343.185608 611.857849,341.929596 611.887451,339.000305 
	C611.959961,331.837952 611.918945,324.674469 611.996460,317.512207 
	C612.015686,315.740448 611.721863,313.576874 614.085632,312.973785 
	C616.246948,312.422302 618.425781,312.548676 620.056702,314.440857 
	C622.665771,317.467865 625.240234,320.524872 627.856018,323.546021 
	C628.812683,324.650940 629.423706,326.126648 632.052368,326.957581 
	C632.052368,323.436005 632.106689,320.211060 632.036072,316.988861 
	C631.973511,314.135773 633.046082,312.701508 636.124084,312.707825 
	C639.069275,312.713867 640.360901,313.802551 640.322632,316.822205 
	C640.227600,324.317474 640.306091,331.814850 640.288513,339.311279 
	C640.284973,340.819977 640.260803,342.376526 638.017578,343.090179 
z"/>
<path fill="#000000" opacity="1.000000" stroke="none" 
	d="
M457.285492,324.572174 
	C458.244781,325.705872 459.000610,326.575897 460.128815,327.874573 
	C461.157013,325.371765 460.281525,323.055969 460.750488,320.963104 
	C461.426880,317.944397 458.310150,312.875275 464.781311,312.778412 
	C471.574127,312.676697 468.855469,318.008118 469.113678,321.166870 
	C469.545380,326.447144 469.322968,331.791565 469.174622,337.103333 
	C469.115143,339.231934 470.215912,342.140625 467.008728,342.983978 
	C464.229156,343.714844 461.819122,342.739807 459.946716,340.425659 
	C456.718201,336.435364 453.404053,332.514374 449.111206,327.341675 
	C449.111206,331.897064 449.122955,335.092590 449.107635,338.287964 
	C449.094269,341.070892 448.391785,343.131348 444.948608,343.193695 
	C441.504059,343.256073 440.749634,341.395844 440.773773,338.472900 
	C440.831421,331.496216 440.751007,324.518402 440.792175,317.541473 
	C440.802582,315.777496 440.421570,313.584473 442.818726,313.013733 
	C444.930634,312.510925 447.166595,312.407257 448.801483,314.352570 
	C451.578644,317.656952 454.323547,320.988434 457.285492,324.572174 
z"/>
<path fill="#000000" opacity="1.000000" stroke="none" 
	d="
M420.202545,312.277496 
	C426.999268,312.494843 432.314850,314.756073 435.427063,320.676361 
	C439.871521,329.131134 436.396484,338.781982 427.777283,342.251770 
	C418.647186,345.927246 407.730011,341.363312 405.091583,332.767944 
	C402.388428,323.961761 408.012787,314.718231 417.336395,312.668549 
	C418.146240,312.490540 418.981354,312.427704 420.202545,312.277496 
M428.840302,328.329529 
	C428.168243,321.901947 424.395691,318.579346 419.261383,319.893005 
	C414.872711,321.015900 412.739655,324.119171 413.101135,328.821930 
	C413.409760,332.837189 415.437744,335.306305 419.495300,335.911743 
	C424.300476,336.628723 427.073029,334.582062 428.840302,328.329529 
z"/>
<path fill="#000000" opacity="1.000000" stroke="none" 
	d="
M598.542358,315.288940 
	C602.613464,324.366058 606.508057,333.085327 610.554321,342.144135 
	C606.140808,343.530518 602.992065,344.317535 600.614685,339.881744 
	C598.514160,335.962402 588.462219,336.100769 585.899292,339.794098 
	C583.121887,343.796478 582.351196,344.006836 577.060791,342.016205 
	C577.615540,337.206085 580.397522,333.154602 582.083740,328.739594 
	C583.679871,324.560608 585.782532,320.571594 587.726685,316.529938 
	C590.024353,311.753448 594.230286,311.142548 598.542358,315.288940 
M595.124451,326.571533 
	C594.535889,325.697357 594.440674,324.279480 592.581482,324.506165 
	C591.927673,326.173859 590.447693,327.614685 590.742798,330.532013 
	C592.854370,329.900146 596.289307,332.344574 595.124451,326.571533 
z"/>
<path fill="#000000" opacity="1.000000" stroke="none" 
	d="
M520.502075,320.848816 
	C520.985413,317.513489 518.110474,312.939972 524.264832,312.725433 
	C526.931641,312.632446 528.298279,313.622711 528.251221,316.459961 
	C528.165710,321.614105 528.455078,326.784119 528.159119,331.922821 
	C527.749084,339.041534 523.026062,343.154877 515.590576,343.358582 
	C507.028900,343.593109 501.565918,339.824615 500.897461,332.514587 
	C500.399658,327.071136 500.768982,321.549194 500.734802,316.062317 
	C500.717987,313.363831 502.378052,312.812347 504.657562,312.737244 
	C507.228333,312.652557 508.873993,313.432648 508.900421,316.292786 
	C508.938843,320.450409 509.010956,324.607727 509.042206,328.765350 
	C509.068970,332.329102 509.550659,335.612244 514.072998,335.940979 
	C518.488342,336.261932 519.836975,333.418976 520.108887,329.694000 
	C520.314209,326.882294 520.397339,324.061707 520.502075,320.848816 
z"/>
<path fill="#000000" opacity="1.000000" stroke="none" 
	d="
M472.559174,338.213623 
	C473.551025,334.226776 475.475647,333.704529 478.882996,335.237000 
	C482.144440,336.703857 485.795166,337.821991 489.191193,334.528625 
	C487.152161,331.310913 483.682190,331.451263 480.828217,330.632812 
	C476.294281,329.332550 472.749786,327.427917 472.720093,322.033661 
	C472.694794,317.444397 475.482147,314.361145 481.066681,312.934570 
	C485.399353,311.827850 489.627472,312.131775 493.716949,314.064789 
	C495.737823,315.020020 496.379211,316.302795 495.361816,318.444763 
	C494.452972,320.358185 493.457214,321.324310 491.128784,320.486725 
	C487.893280,319.322845 484.503204,318.145935 481.353729,321.194153 
	C482.219696,324.256622 484.828278,324.144135 486.940491,324.653564 
	C490.042419,325.401733 493.121063,326.232269 495.524506,328.413422 
	C498.876251,331.455200 498.287689,337.784454 494.510742,340.810883 
	C488.851013,345.346039 476.032440,344.036926 472.559174,338.213623 
z"/>
<path fill="#000000" opacity="1.000000" stroke="none" 
	d="
M672.980530,316.959717 
	C671.370178,321.245972 669.461182,323.763245 664.178833,320.804840 
	C660.760620,318.890472 656.583801,319.404968 653.882324,323.094238 
	C651.579468,326.239044 651.505005,329.654785 653.809387,332.831055 
	C656.485901,336.520294 660.240417,336.469147 664.154968,335.305817 
	C664.780090,335.120026 665.365601,334.748932 665.920837,334.388702 
	C668.658997,332.612091 670.399353,334.396088 671.772156,336.293762 
	C673.559021,338.763519 671.138489,339.891998 669.668579,340.995483 
	C664.495850,344.878754 654.132690,344.214325 649.079712,339.809357 
	C643.407837,334.864838 642.123535,326.388245 646.051575,319.823425 
	C649.652466,313.805359 658.390076,310.632202 665.327759,313.070129 
	C667.806152,313.941101 670.062744,315.443115 672.710693,316.823822 
	C673.000793,316.990570 672.980530,316.959717 672.980530,316.959717 
z"/>
<path fill="#000000" opacity="1.000000" stroke="none" 
	d="
M379.693176,316.660217 
	C387.228607,311.407745 394.798767,310.887421 400.378448,315.165955 
	C401.832336,316.280792 404.244171,317.414917 402.248627,319.877991 
	C400.756927,321.719238 399.251923,323.027954 396.324677,321.548309 
	C389.127075,317.910095 383.050842,321.063507 383.101593,328.028076 
	C383.145538,334.057373 388.740295,337.515930 394.868500,335.287872 
	C396.253693,334.784302 397.636108,333.742371 398.985016,333.797638 
	C400.875671,333.875061 402.452454,335.322784 402.900238,337.172058 
	C403.433228,339.373322 401.463562,340.358032 399.956573,341.312805 
	C393.675568,345.292267 383.289795,343.694397 378.416107,338.069305 
	C373.001740,331.820282 373.383362,323.696136 379.693176,316.660217 
z"/>
<path fill="#000000" opacity="1.000000" stroke="none" 
	d="
M673.014038,317.003174 
	C672.857300,315.528473 671.336792,313.444000 673.972168,312.965027 
	C676.486694,312.508026 679.292664,311.975128 681.235779,314.706970 
	C683.335693,317.659302 684.632080,321.165039 687.459534,323.907745 
	C692.255432,320.413513 691.815918,309.914490 701.896729,313.417358 
	C701.585144,317.601562 698.522156,320.452545 696.665222,323.804993 
	C693.859802,328.869873 690.268555,333.532928 691.213318,339.904327 
	C691.602478,342.528503 689.784790,343.213959 687.426819,343.228149 
	C684.601501,343.245148 682.798950,342.161896 682.982666,339.207916 
	C683.537659,330.284424 677.837280,324.127838 673.261902,317.148132 
	C672.980530,316.959717 673.000793,316.990570 673.014038,317.003174 
z"/>
<path fill="#000000" opacity="1.000000" stroke="none" 
	d="
M570.246460,331.019562 
	C570.237000,334.001038 570.171265,336.494812 570.233154,338.985413 
	C570.304993,341.874908 569.082153,343.264404 566.085938,343.227936 
	C563.229309,343.193115 561.753357,342.066040 561.786133,339.081268 
	C561.839050,334.263428 561.689392,329.441864 561.815308,324.626831 
	C561.895203,321.567932 560.908020,319.929749 557.584656,320.003876 
	C555.019775,320.061096 552.507263,319.907776 552.647217,316.122955 
	C552.793518,312.163910 555.601624,312.774323 557.988281,312.746887 
	C563.968994,312.678131 569.951050,312.722626 575.932556,312.730713 
	C577.789856,312.733215 579.229858,313.279968 579.275452,315.485077 
	C579.313660,317.329681 579.455261,319.896698 577.043396,319.700317 
	C568.721741,319.022827 570.299500,324.750793 570.247620,329.533478 
	C570.244019,329.865784 570.246765,330.198120 570.246460,331.019562 
z"/>
<path fill="#000000" opacity="1.000000" stroke="none" 
	d="
M352.346741,327.166992 
	C352.351379,330.633972 352.509338,333.634460 352.315765,336.612122 
	C352.143219,339.266357 353.748779,343.088623 348.660797,343.101044 
	C343.438995,343.113800 344.743500,339.231110 344.628082,336.323334 
	C344.489807,332.840118 344.544464,329.345520 344.624054,325.858337 
	C344.708557,322.157471 343.521912,319.721222 339.313049,319.769989 
	C336.625641,319.801117 334.816681,318.869812 335.106262,315.678192 
	C335.396881,312.475067 337.718872,312.749115 339.871063,312.741821 
	C345.852051,312.721527 351.833313,312.766449 357.814240,312.739197 
	C360.071198,312.728912 361.734161,313.277710 361.873260,315.952515 
	C362.019562,318.764771 360.544037,320.033112 357.962219,319.831696 
	C352.665985,319.418365 351.859131,322.476166 352.346741,327.166992 
z"/>
<path fill="#000000" opacity="1.000000" stroke="none" 
	d="
M541.315918,324.975006 
	C541.317078,325.962555 541.312683,326.461548 541.318787,326.960449 
	C541.434021,336.366028 540.088135,335.875702 550.117615,335.922577 
	C550.948547,335.926453 551.779114,335.978912 552.610046,336.001617 
	C554.960510,336.065735 555.791870,337.497803 555.772095,339.604492 
	C555.752441,341.697906 554.951721,343.143921 552.564087,343.139038 
	C547.242554,343.128113 541.921021,343.135071 536.599487,343.128387 
	C534.005066,343.125122 533.085876,341.477997 533.073792,339.236633 
	C533.032532,331.587708 533.077820,323.938263 533.092346,316.289032 
	C533.097778,313.441711 534.729553,312.697021 537.312073,312.710693 
	C539.994324,312.724884 541.358521,313.703552 541.289429,316.504028 
	C541.223755,319.162994 541.300842,321.825470 541.315918,324.975006 
z"/>
<path fill="#000000" opacity="1.000000" stroke="none" 
	d="
M324.667236,320.093292 
	C324.682831,318.440063 324.730286,317.273438 324.707184,316.108246 
	C324.653564,313.405121 326.287872,312.796356 328.591187,312.765076 
	C331.031219,312.731934 332.325195,313.653564 332.313019,316.248657 
	C332.277100,323.911713 332.270844,331.575500 332.342560,339.238129 
	C332.368378,341.997284 331.135132,343.143494 328.430908,343.138062 
	C325.614197,343.132355 324.647614,341.714630 324.672668,339.072479 
	C324.731049,332.909088 324.676086,326.744598 324.667236,320.093292 
z"/>
</svg>